<?xml version="1.0" encoding="UTF-8"?>
<svg width="512" height="512" viewBox="0 0 512 512" xmlns="http://www.w3.org/2000/svg">
  <!-- Background circle -->
  <circle cx="256" cy="256" r="240" fill="#3DDC84"/>
  
  <!-- Android robot body -->
  <rect x="176" y="220" width="160" height="180" rx="20" fill="#FFFFFF"/>
  
  <!-- Android robot head -->
  <rect x="176" y="140" width="160" height="100" rx="50" fill="#FFFFFF"/>
  
  <!-- Android antennas -->
  <line x1="206" y1="140" x2="186" y2="100" stroke="#FFFFFF" stroke-width="12" stroke-linecap="round"/>
  <line x1="306" y1="140" x2="326" y2="100" stroke="#FFFFFF" stroke-width="12" stroke-linecap="round"/>
  
  <!-- Eyes -->
  <circle cx="216" cy="170" r="12" fill="#3DDC84"/>
  <circle cx="296" cy="170" r="12" fill="#3DDC84"/>
  
  <!-- Arms -->
  <rect x="140" y="230" width="30" height="120" rx="15" fill="#FFFFFF"/>
  <rect x="342" y="230" width="30" height="120" rx="15" fill="#FFFFFF"/>
  
  <!-- Legs -->
  <rect x="200" y="400" width="40" height="80" rx="20" fill="#FFFFFF"/>
  <rect x="272" y="400" width="40" height="80" rx="20" fill="#FFFFFF"/>
  
  <!-- Linux penguin elements (small tux in corner) -->
  <ellipse cx="400" cy="112" rx="40" ry="50" fill="#000000"/>
  <ellipse cx="400" cy="130" rx="30" ry="35" fill="#FFFFFF"/>
  <circle cx="390" cy="120" r="4" fill="#000000"/>
  <circle cx="410" cy="120" r="4" fill="#000000"/>
  <path d="M 400 125 L 395 130 L 405 130 Z" fill="#FFA500"/>
</svg>
